<svg xmlns="http://www.w3.org/2000/svg" id="spotify" width="24" height="24" viewBox="0 0 56 56" fill="none" stroke-width="1" stroke-linecap="round" stroke-linejoin="round">
    <path style=" stroke:none;fill-rule:evenodd;fill:rgb(6.27451%,73.72549%,29.803922%);fill-opacity:1;" d="M 28 0 C 12.601562 0 0 12.601562 0 28 C 0 43.398438 12.601562 56 28 56 C 43.398438 56 56 43.398438 56 28 C 56 12.601562 43.539062 0 28 0 M 40.878906 40.460938 C 40.320312 41.300781 39.339844 41.578125 38.5 41.019531 C 31.921875 36.960938 23.660156 36.121094 13.859375 38.359375 C 12.878906 38.640625 12.039062 37.941406 11.761719 37.101562 C 11.480469 36.121094 12.179688 35.28125 13.019531 35 C 23.660156 32.621094 32.898438 33.601562 40.179688 38.078125 C 41.160156 38.5 41.300781 39.621094 40.878906 40.460938 M 44.238281 32.761719 C 43.539062 33.738281 42.28125 34.160156 41.300781 33.460938 C 33.738281 28.839844 22.261719 27.441406 13.441406 30.238281 C 12.320312 30.519531 11.058594 29.960938 10.78125 28.839844 C 10.5 27.71875 11.058594 26.460938 12.179688 26.179688 C 22.398438 23.101562 35 24.640625 43.679688 29.960938 C 44.519531 30.378906 44.941406 31.78125 44.238281 32.761719 M 44.519531 24.921875 C 35.558594 19.601562 20.578125 19.039062 12.039062 21.699219 C 10.640625 22.121094 9.238281 21.28125 8.820312 20.019531 C 8.398438 18.621094 9.238281 17.21875 10.5 16.800781 C 20.441406 13.859375 36.820312 14.421875 47.179688 20.578125 C 48.441406 21.28125 48.859375 22.960938 48.160156 24.21875 C 47.460938 25.199219 45.78125 25.621094 44.519531 24.921875 "></path>
</svg>